<svg height="1024" width="1024" xmlns="http://www.w3.org/2000/svg"><path fill="none" d="M-1-1h1026v1026H-1z"/><g fill="#dd4b39"><path d="M488.6 80.1c-148.4 8.5-279.8 90.7-354.1 221.4C81 395.7 65.6 511.8 92.5 619 131.2 773 253 894.8 407 933.5c69.4 17.4 142.6 17.4 212 0C773 894.8 894.8 773 933.5 619c17.4-69.4 17.4-142.6 0-212-43.5-173.2-190.9-303.2-368-324.4-26.7-3.2-50.9-4-76.9-2.5zM600 283.9c0 7-9.8 13-29.6 18.1-6.5 1.7-16.7 3.5-22.6 4.1-9.6.8-15.8 2.1-15.8 3.3 0 .2 2 1.6 4.3 3 24.9 14.5 34.7 38.7 34.8 85.9.1 42.8-9.7 67.5-37.7 95.2-18.5 18.2-25.4 27.7-25.4 34.7 0 6.8 5.3 13.4 31.4 39.3 32.6 32.3 43.4 46.3 52.9 68.7 5.6 12.9 7.7 23.8 7.7 39.8 0 44.2-15.5 78.1-46.3 101-21.2 15.8-54.1 28.4-84.7 32.6-17.4 2.3-49.3 2.1-64.3-.5-21.9-3.8-47-11.3-60.8-18.1-27.4-13.5-45.2-39.7-50-73.9-1.7-12.2-.7-35.5 2.1-45.6 7.3-27.3 25.1-48.6 51.5-61.8 21.1-10.5 77.2-22.7 104.7-22.7 3.2 0 5.8-.3 5.8-.6s-1.4-2.5-3-5c-9.4-13.6-15.4-32.3-14.8-46l.3-8.4H430c-24.4 0-47.9-7.1-67.5-20.3-21.5-14.6-34.3-36.7-39-67.7-2-12.6-1.9-37.3 0-48.6 5.8-33.3 24.3-63.1 49.7-80.3 21.9-14.6 48.3-25 71.3-28 3.9-.4 40.4-.9 81.3-1l74.2-.1v2.9zm142.2 158.8l.3 44.8 45.3.3 45.2.2v57l-45.2.2c-39.4.3-45.3.5-45.4 1.8-.1.8-.2 21.2-.3 45.2L742 636h-57v-91h-90v-57h90v-90h57l.2 44.7z"/><path d="M427 319.6c-19.9 3.9-35.5 21.8-40.4 46.4-3.9 19-3.1 41.1 2 58.8 5.3 18.4 14.8 34.8 27.3 47.2 23.6 23.5 51.6 26.3 72.2 7.3 18.3-17 28.2-49.6 23.8-78.6-2.6-17.4-10.9-39.4-19.7-52.4-8.7-12.7-23.2-23.1-37.7-26.8-6.2-1.6-23-2.7-27.5-1.9zm10.5 296.5c-28.4 3.6-61.2 23.7-74.4 45.4-11.2 18.5-12.7 41.1-3.9 59 3.3 6.6 9.8 14.4 15.9 19.1 26.6 20.4 67.5 27.5 105.9 18.3 18.3-4.3 31.7-11.6 44-23.9 13.8-13.8 19-25.9 19-44.6 0-40.3-29.1-69-74.6-73.4-11.7-1.1-22.3-1.1-31.9.1z"/></g></svg>